<svg width="125" height="30" viewBox="0 0 125 30" fill="none" xmlns="http://www.w3.org/2000/svg">
<g clip-path="url(#clip0_379_1361)">
<path d="M102.065 5.54745C100.781 5.54745 100.245 6.00501 99.9817 7.20018L96.8875 26.3058H103.585L107.193 5.54745H102.065ZM23.8312 5.53607H17.9873C17.0866 5.53607 16.5782 5.82183 15.9795 6.38063L9.29758 12.8824L10.9131 5.53607H5.61782C4.35471 5.53607 3.83579 5.98793 3.57983 7.15506L0 26.309H6.64163L8.47011 17.2871L14.6564 26.309H22.9306L14.6932 14.5716L23.8312 5.53607ZM114.761 21.4397L117.493 5.54745H112.368C111.104 5.54745 110.565 5.98485 110.295 7.13181L107.191 26.3058H123.561L124.186 21.4397H114.761Z" fill="white"/>
<path d="M36.2459 0.0548017C29.4015 0.638861 24.0354 5.69462 22.7578 12.0828C26.4082 8.81569 33.3986 7.64757 44.076 11.3162C46.4852 12.1375 48.6937 13.0136 50.7197 13.9262C52.5631 14.7475 54.4431 15.7331 56.396 16.8648C60.4297 19.1827 64.9379 22.4133 68.57 26.301H78.572L85.5808 12.028L88.2455 26.301H95.3455L90.9833 5.54861H84.4309C83.4088 5.54861 82.9707 5.84064 82.5145 6.57071L73.9361 23.5449L68.0225 18.1971C70.7055 17.4488 73.6988 15.3864 74.5201 11.9185C76.0168 5.78588 70.8332 5.53036 69.0993 5.53036H59.5901C58.349 5.53036 58.1299 5.80413 57.8744 6.9175L56.0492 15.5324C51.3767 12.4843 40.7724 6.31519 33.3074 6.22393C31.4457 6.20567 30.0585 6.47945 28.7444 7.30079C28.5436 7.42855 28.4889 7.4103 28.4524 7.39205L28.5619 7.19128C29.365 6.20568 31.0076 4.61776 33.7637 3.77818C33.7637 3.77818 38.1624 2.24502 44.076 5.82239C47.5073 7.9031 49.8253 9.65528 52.0703 11.517C50.4641 4.87329 44.5323 4.57764e-05 37.5418 4.57764e-05C37.122 4.57764e-05 36.684 0.018298 36.2459 0.0548017ZM64.3356 8.74268H66.7996C66.7996 8.74268 69.2818 8.59667 68.3875 11.9185C68.3875 11.9185 67.4201 15.8792 62.8572 15.8792C63.0579 14.8753 64.1896 9.4545 64.3356 8.74268Z" fill="white"/>
<path d="M28.23 13.9938C28.23 13.9938 24.7968 15.5923 24.5606 19.4978C24.3427 23.3125 27.2309 25.9464 27.2309 25.9464L27.2491 25.9646C30.2644 28.7802 34.4061 30.3242 38.8383 29.9427C45.6502 29.3614 50.918 24.2571 52.1896 17.8993C52.6982 18.0265 53.7881 18.3353 55.3321 18.8439L53.7518 26.3097H60.7271C60.7271 26.3097 61.2902 23.367 61.8352 21.0419C57.8752 18.6441 53.6609 16.9911 53.6609 16.9911C46.177 13.794 40.0009 12.577 35.387 12.577C32.2626 12.577 29.8467 13.1401 28.23 13.9938Z" fill="url(#paint0_radial_379_1361)"/>
</g>
<defs>
<radialGradient id="paint0_radial_379_1361" cx="0" cy="0" r="1" gradientUnits="userSpaceOnUse" gradientTransform="translate(35.7503 11.5158) scale(18.165)">
<stop stop-color="white"/>
<stop offset="0.2" stop-color="white"/>
<stop offset="1" stop-color="white"/>
</radialGradient>
<clipPath id="clip0_379_1361">
<rect width="125" height="30" fill="white"/>
</clipPath>
</defs>
</svg>
